<?xml version="1.0" encoding="utf-8"?>
<!-- Generator: Adobe Illustrator 24.3.0, SVG Export Plug-In . SVG Version: 6.00 Build 0)  -->
<svg version="1.1" xmlns="http://www.w3.org/2000/svg" xmlns:xlink="http://www.w3.org/1999/xlink" x="0px" y="0px"
	 viewBox="0 0 800 458.1" style="enable-background:new 0 0 800 458.1;" xml:space="preserve">
<style type="text/css">
	.st0{display:none;}
	.st1{display:inline;}
	.st2{fill:#DD0613;}
	.st3{display:none;fill:#DD0613;}
	.st4{display:none;fill:#DC0B17;}
	.st5{fill:#FFFFFF;}
	.st6{display:none;fill:#F42AFF;}
	.st7{font-family:'ObjektivMk2W03-Bold';}
	.st8{font-size:140px;}
	.st9{letter-spacing:-1;}
	.st10{display:inline;fill:#00C9F4;}
	.st11{display:inline;fill:#0A9F00;}
	.st12{display:inline;fill:#DD0613;}
	.st13{font-family:'OpenSans-Bold';}
	.st14{font-size:148.7054px;}
	.st15{display:inline;fill:#FFFFFF;}
</style>
<g id="Layer_1">
	<g id="Layer_4" class="st0">
		<rect x="-4.5" y="-53.2" class="st1" width="841.9" height="595.3"/>
	</g>
	<polygon id="_x2D_10" class="st2" points="710.3,304.4 28.3,304.4 89.6,157.4 771.7,157.4 	"/>
	<polygon id="Normal_0" class="st3" points="721.5,304.4 27,304.4 88.2,157.4 782.9,157.4 	"/>
	<polygon id="Thin" class="st4" points="721.5,304.4 27,304.4 82,172.3 776.7,172.3 	"/>
	<g>
		<path d="M115.6,136.8c8.5,4.3,18.2,6.5,29.3,6.5c6.3,0,12.6-0.7,18.8-2.2c6.2-1.5,11.6-3.6,16.4-6.3l-2.2-18.5
			c-4.9,2.5-10,4.5-15.5,5.9c-5.5,1.4-10.7,2.1-15.5,2.1c-11.1,0-19.9-3.2-26.5-9.6c-6.5-6.4-9.8-15.1-9.8-26c0-7.3,1.5-13.6,4.6-19
			c3.1-5.4,7.3-9.6,12.7-12.5c5.4-2.9,11.6-4.3,18.5-4.3c9.4,0,19.2,2.5,29.4,7.6l3.5-18.1c-4.3-2.6-9.4-4.7-15.5-6.2
			s-11.9-2.3-17.7-2.3c-11.5,0-21.6,2.4-30.4,7.3c-8.8,4.9-15.5,11.5-20.2,19.8c-4.7,8.4-7.1,17.8-7.1,28.2c0,11,2.4,20.6,7.3,28.8
			C100.4,126.2,107.1,132.4,115.6,136.8z"/>
		<path d="M212.5,139.5c6.2,3,13.5,4.5,21.8,4.5c5.3,0,10.4-0.5,15.3-1.5c4.9-1,9-2.5,12.3-4.3l-2-15.3c-3.3,1.7-6.9,3-11,3.9
			c-4.1,0.9-8.2,1.3-12.5,1.3c-13.7,0-21.8-5.3-24.2-16h50.3c0.5-2.5,0.7-5.3,0.7-8.4c0-7.3-1.4-13.6-4.3-18.9
			c-2.8-5.3-6.8-9.4-11.9-12.2c-5.1-2.8-11-4.3-17.7-4.3c-7.3,0-13.7,1.7-19.2,5c-5.5,3.3-9.8,7.8-12.7,13.6
			c-3,5.7-4.5,12.2-4.5,19.4c0,7.7,1.7,14.5,5.2,20.2C201.5,132.2,206.3,136.5,212.5,139.5z M217.6,87.1c2.9-2.7,6.6-4,11.1-4
			c4.6,0,8.2,1.3,11,4c2.8,2.7,4.4,6.5,4.8,11.4H212C212.9,93.5,214.8,89.7,217.6,87.1z"/>
		<path d="M326.3,141.7h19.5V98.5c0-9.8-2.2-17.3-6.7-22.5c-4.4-5.2-10.8-7.8-19.2-7.8c-4.9,0-9.3,1-12.9,2.9
			c-3.7,1.9-6.6,4.6-8.6,8.2l-0.1-8.8h-18.8v71.3h19.5v-38.4c0-5.7,1.3-10.1,3.9-13.2c2.6-3.1,6.2-4.7,10.9-4.7
			c8.5,0,12.7,5.6,12.7,16.7V141.7z"/>
		<path d="M400.3,126.8c-4,0-6.9-1.1-8.5-3.2c-1.7-2.1-2.5-5.7-2.5-10.6V86.6h22.3V70.5h-22.3V51.2h-19.5v19.3H356v16.1h13.9v29.8
			c0,9.3,2.1,16.3,6.4,20.8c4.3,4.5,10.9,6.8,19.7,6.8c3.7,0,7.3-0.4,10.7-1.1c3.4-0.7,6.2-1.7,8.3-2.9l-2.1-16.2
			C409.1,125.7,404.9,126.8,400.3,126.8z"/>
		<path d="M447.2,109.3c0-6.9,1.5-12.3,4.4-16.1c2.9-3.8,7.1-5.7,12.4-5.7c2.9,0,5.8,0.6,8.7,1.7l1.7-18.3c-2.5-1-5.3-1.5-8.3-1.5
			c-4.4,0-8.2,1.1-11.5,3.4c-3.3,2.2-6,5.5-7.9,9.7l-0.1-11.8h-18.8v71.3h19.5V109.3z"/>
		<path d="M528.2,141.1c4-1.9,7.2-4.7,9.7-8.5l0.3,9.1h18.6V70.5h-18.6l-0.3,9.2c-2.3-3.6-5.5-6.5-9.5-8.5c-4-2-8.4-3-13.2-3
			c-6.5,0-12.4,1.8-17.6,5.2c-5.2,3.5-9.3,8.1-12.1,13.9c-2.8,5.7-4.3,12.1-4.3,19c0,7.5,1.4,14.1,4.3,19.8
			c2.9,5.7,6.8,10.1,11.8,13.2c5,3.1,10.6,4.6,16.9,4.6C519.5,144,524.2,143,528.2,141.1z M500.6,106c0-6,1.8-10.9,5.2-14.7
			c3.5-3.8,8-5.7,13.7-5.7c5.6,0,10.1,1.9,13.6,5.7c3.5,3.8,5.2,8.7,5.2,14.7c0,6.1-1.8,11-5.3,14.8c-3.5,3.8-8.1,5.7-13.6,5.7
			c-5.5,0-10-1.9-13.6-5.7C502.4,117.1,500.6,112.1,500.6,106z"/>
		<rect x="576" y="28.3" width="19.5" height="113.4"/>
		<path class="st5" d="M139,266.6c-3.5,2.4-8.5,3.6-14.9,3.6c-5.5,0-11.2-0.8-17.2-2.5c-6-1.7-11.2-4-15.7-6.9l-2.1,18.3
			c3.8,2.6,9.1,4.7,15.8,6.4c6.7,1.6,13.4,2.5,20,2.5c12.6,0,22.5-2.8,29.8-8.5c7.2-5.6,10.8-13.4,10.8-23.2c0-8.3-2.7-15.1-8-20.2
			c-5.3-5.2-14.3-9.8-27-13.8c-4.9-1.6-8.8-3-11.4-4.3c-2.7-1.3-4.6-2.8-5.7-4.4c-1.2-1.6-1.8-3.7-1.8-6.2c0-4,1.5-7.1,4.6-9.2
			c3-2.1,7.5-3.2,13.5-3.2c4.6,0,9.4,0.7,14.5,2.2c5.1,1.4,9.6,3.3,13.6,5.7l2.9-17.8c-4.3-2.4-9.3-4.3-15-5.7
			c-5.7-1.4-11.3-2.1-16.8-2.1c-7.7,0-14.5,1.3-20.3,3.9c-5.8,2.6-10.2,6.1-13.2,10.7c-3,4.6-4.5,9.8-4.5,15.8c0,8.3,2.5,15,7.4,20
			c4.9,5,13.2,9.4,24.8,13c8.2,2.6,13.8,5,16.7,7.3c2.9,2.2,4.4,5.2,4.4,8.8C144.3,260.9,142.5,264.3,139,266.6z"/>
		<path class="st5" d="M223.6,286.9c3.4-0.7,6.2-1.7,8.3-2.9l-2.1-16.2c-3.8,2.1-8,3.1-12.6,3.1c-4,0-6.9-1.1-8.5-3.2
			c-1.7-2.1-2.5-5.7-2.5-10.6v-26.3h22.3v-16.1h-22.3v-19.3h-19.5v19.3h-13.9v16.1h13.9v29.8c0,9.3,2.1,16.3,6.4,20.8
			c4.3,4.5,10.9,6.8,19.7,6.8C216.6,288,220.2,287.6,223.6,286.9z"/>
		<path class="st5" d="M310.5,214.5H291v38.4c0,5.7-1.3,10.1-3.8,13.2c-2.5,3.1-6.1,4.7-10.8,4.7c-8.5,0-12.7-5.6-12.7-16.7v-39.6
			h-19.5v43.3c0,9.8,2.2,17.3,6.6,22.5c4.4,5.2,10.9,7.8,19.2,7.8c4.9,0,9.1-0.9,12.8-2.8c3.7-1.9,6.6-4.6,8.6-8.1l0.1,8.7h18.8
			V214.5z"/>
		<path class="st5" d="M341.9,283.4c5,3.1,10.6,4.6,16.9,4.6c5.3,0,10-1,14-2.9c4-1.9,7.2-4.7,9.7-8.5l0.3,9.1h18.6V172.3h-19.5
			v50.5c-2.3-3.4-5.4-6-9.3-7.8c-3.9-1.9-8.1-2.8-12.8-2.8c-6.5,0-12.4,1.8-17.6,5.2c-5.2,3.5-9.3,8.1-12.1,13.9
			c-2.8,5.7-4.3,12.1-4.3,19c0,7.5,1.4,14.1,4.3,19.8C333,275.9,336.9,280.3,341.9,283.4z M350.4,235.3c3.5-3.8,8.1-5.7,13.7-5.7
			c5.6,0,10.1,1.9,13.6,5.7c3.5,3.8,5.2,8.7,5.2,14.7c0,6.1-1.8,11-5.3,14.8c-3.5,3.8-8.1,5.7-13.6,5.7c-5.5,0-10-1.9-13.6-5.7
			c-3.5-3.8-5.3-8.8-5.3-14.8C345.2,244.1,346.9,239.2,350.4,235.3z"/>
		<path class="st5" d="M470.7,216.5c-5.1-2.8-11-4.3-17.7-4.3c-7.3,0-13.7,1.7-19.2,5c-5.5,3.3-9.8,7.8-12.7,13.6
			c-3,5.7-4.5,12.2-4.5,19.4c0,7.7,1.7,14.5,5.2,20.2c3.5,5.7,8.3,10.1,14.5,13.1c6.2,3,13.5,4.5,21.8,4.5c5.3,0,10.4-0.5,15.3-1.5
			c4.9-1,9-2.5,12.3-4.3l-2-15.3c-3.3,1.7-6.9,3-11,3.8c-4.1,0.9-8.2,1.3-12.5,1.3c-13.7,0-21.8-5.3-24.2-16h50.3
			c0.5-2.5,0.7-5.3,0.7-8.4c0-7.3-1.4-13.6-4.3-18.9C479.7,223.4,475.8,219.4,470.7,216.5z M435.8,242.5c0.8-4.9,2.7-8.8,5.6-11.4
			c2.9-2.7,6.6-4,11.1-4c4.6,0,8.2,1.3,11,4c2.8,2.7,4.4,6.5,4.8,11.4H435.8z"/>
		<path class="st5" d="M543.6,212.2c-4.9,0-9.3,1-13,2.9c-3.7,1.9-6.6,4.6-8.6,8.2l-0.1-8.8h-18.8v71.3h19.5v-38.4
			c0-5.7,1.3-10.1,3.8-13.2c2.6-3.1,6.2-4.7,10.8-4.7c8.5,0,12.7,5.6,12.7,16.7v39.6h19.5v-43.3c0-9.8-2.2-17.3-6.6-22.5
			C558.4,214.8,552,212.2,543.6,212.2z"/>
		<path class="st5" d="M624.1,270.8c-4,0-6.9-1.1-8.5-3.2c-1.7-2.1-2.5-5.7-2.5-10.6v-26.3h22.3v-16.1H613v-19.3h-19.5v19.3h-13.9
			v16.1h13.9v29.8c0,9.3,2.1,16.3,6.4,20.8c4.3,4.5,10.9,6.8,19.7,6.8c3.7,0,7.3-0.4,10.7-1.1c3.4-0.7,6.2-1.7,8.3-2.9l-2.1-16.2
			C632.8,269.7,628.6,270.8,624.1,270.8z"/>
		<path class="st5" d="M679.8,241.9c-4.9-1.4-8.1-2.7-9.7-3.9c-1.6-1.2-2.5-2.8-2.5-4.8c0-3.6,3.4-5.5,10.2-5.5
			c3.5,0,7.1,0.5,10.9,1.5c3.8,1,7.1,2.3,10,4l2.2-15.4c-2.8-1.7-6.4-3-10.8-4.1c-4.4-1-8.8-1.5-13.2-1.5c-9,0-16,2-21.1,5.9
			c-5.1,3.9-7.7,9.3-7.7,16.1c0,6.1,1.8,10.9,5.4,14.5c3.6,3.6,9.6,6.6,18,8.9c5.3,1.5,8.8,2.8,10.5,3.9s2.5,2.8,2.5,4.9
			c0,4-4,6-11.9,6c-3.9,0-8-0.7-12.2-2c-4.2-1.3-8-3-11.1-5.2l-2.4,15.8c2.6,2.1,6.3,3.7,11.2,5c4.9,1.3,10,1.9,15.4,1.9
			c9.6,0,17.2-2,22.6-5.9s8.2-9.3,8.2-16.2c0-6.3-1.8-11.2-5.5-14.7C695.1,247.6,688.7,244.5,679.8,241.9z"/>
		<path class="st5" d="M717.3,179.3c0,12.2-1.9,23.8-5.7,34.7H726c2.8-4.9,5.1-10.4,6.8-16.5c1.7-6.2,2.6-12.2,2.7-18.2H717.3z"/>
		<path d="M166.1,383.1c0,19.9-8.6,29.8-25.8,29.8c-17.1,0-25.6-9.9-25.6-29.8v-59.8H93.3v61.5c0,15,4.1,26.6,12.3,34.9
			c8.2,8.2,19.7,12.3,34.6,12.3c15.1,0,26.8-4.1,35-12.3c8.2-8.2,12.3-19.8,12.3-34.9v-61.5h-21.4V383.1z"/>
		<path d="M249,356.2c-4.9,0-9.3,1-12.9,2.9c-3.7,1.9-6.6,4.6-8.6,8.2l-0.1-8.8h-18.8v71.3H228v-38.4c0-5.7,1.3-10.1,3.9-13.2
			c2.6-3.1,6.2-4.7,10.9-4.7c8.5,0,12.7,5.6,12.7,16.7v39.6h19.5v-43.3c0-9.8-2.2-17.3-6.7-22.5C263.8,358.8,257.4,356.2,249,356.2z
			"/>
		<rect x="293.8" y="358.5" width="19.5" height="71.3"/>
		<path d="M303.5,321.4c-3.4,0-6.1,1.1-8.3,3.2c-2.2,2.1-3.3,4.8-3.3,8c0,3.2,1.1,5.9,3.3,8c2.2,2.2,5,3.3,8.3,3.3s6.1-1.1,8.3-3.2
			c2.2-2.1,3.3-4.9,3.3-8.1c0-3.2-1.1-5.8-3.3-8C309.6,322.5,306.8,321.4,303.5,321.4z"/>
		<path d="M386.1,360.9c-5.8-3.1-12.2-4.7-19.2-4.7c-7.4,0-14,1.7-19.9,5.2c-5.9,3.5-10.4,8.1-13.6,13.8c-3.2,5.7-4.8,12-4.8,18.8
			c0,7.4,1.7,14,5.2,19.7c3.5,5.8,8.1,10.3,13.9,13.4c5.8,3.2,12.2,4.8,19.2,4.8c7.4,0,14-1.7,19.9-5.2c5.9-3.5,10.4-8,13.6-13.8
			c3.2-5.7,4.8-12.1,4.8-19c0-7.4-1.7-14-5.2-19.7C396.6,368.5,392,364.1,386.1,360.9z M380.5,408.9c-3.5,3.8-8.1,5.7-13.6,5.7
			c-5.5,0-10-1.9-13.6-5.7c-3.5-3.8-5.3-8.8-5.3-14.8c0-6,1.8-10.9,5.2-14.7c3.5-3.8,8.1-5.7,13.7-5.7c5.6,0,10.1,1.9,13.6,5.7
			c3.5,3.8,5.2,8.7,5.2,14.7C385.8,400.1,384,405.1,380.5,408.9z"/>
		<path d="M461,356.2c-4.9,0-9.3,1-13,2.9c-3.7,1.9-6.6,4.6-8.6,8.2l-0.1-8.8h-18.8v71.3H440v-38.4c0-5.7,1.3-10.1,3.8-13.2
			c2.6-3.1,6.2-4.7,10.8-4.7c8.5,0,12.7,5.6,12.7,16.7v39.6h19.5v-43.3c0-9.8-2.2-17.3-6.6-22.5C475.8,358.8,469.4,356.2,461,356.2z
			"/>
	</g>
	<text transform="matrix(1 0 0 1 8.0497 285.7361)" class="st6 st7 st8 st9">/Students/</text>
</g>
<g id="Layer_2" class="st0">
	<rect x="384.8" y="285.7" class="st10" width="18.6" height="18.6"/>
	<rect x="386.7" y="153.7" class="st10" width="18.6" height="18.6"/>
	<rect x="386.5" y="304.4" class="st10" width="15" height="15"/>
	
		<rect x="352.7" y="153.7" transform="matrix(-1 -1.224647e-16 1.224647e-16 -1 723.918 326.062)" class="st10" width="18.6" height="18.6"/>
	
		<rect x="354.5" y="138.7" transform="matrix(-1 -1.224647e-16 1.224647e-16 -1 724.0663 292.4662)" class="st10" width="15" height="15"/>
	
		<rect x="405.3" y="157.4" transform="matrix(-1 -1.224647e-16 1.224647e-16 -1 825.571 329.7081)" class="st10" width="15" height="15"/>
	<rect x="-4.5" y="131.7" class="st11" width="841.9" height="25.6"/>
</g>
<g id="Layer_3" class="st0">
	<polygon class="st12" points="766.5,306.2 21.5,306.2 77.7,155.6 822.6,155.6 	"/>
	<text transform="matrix(1 0 0 1 78.7495 136.4164)" class="st1 st13 st14">Central</text>
	<text transform="matrix(1 0 0 1 78.7495 285.1215)" class="st15 st13 st14">Students’</text>
	<text transform="matrix(1 0 0 1 78.7495 433.8275)" class="st1 st13 st14">Union</text>
</g>
</svg>
