<?xml version="1.0" standalone="no"?>
<!DOCTYPE svg PUBLIC "-//W3C//DTD SVG 20010904//EN"
 "http://www.w3.org/TR/2001/REC-SVG-20010904/DTD/svg10.dtd">
<svg version="1.0" xmlns="http://www.w3.org/2000/svg"
 width="260.000000pt" height="260.000000pt" viewBox="0 0 260.000000 260.000000"
 preserveAspectRatio="xMidYMid meet">
<metadata>
Created by potrace 1.14, written by Peter Selinger 2001-2017
</metadata>
<g transform="translate(0.000000,260.000000) scale(0.100000,-0.100000)"
fill="#000000" stroke="none">
<path d="M1229 2411 c-16 -16 -29 -40 -30 -53 -6 -154 -2 -2100 4 -2121 22
-69 115 -91 168 -38 16 16 29 40 30 53 5 134 2 2091 -3 2113 -19 75 -113 101
-169 46z"/>
<path d="M874 2051 c-19 -12 -36 -33 -42 -53 -7 -21 -10 -269 -9 -714 2 -656
3 -683 21 -703 11 -12 36 -26 57 -32 32 -10 42 -9 71 8 18 10 39 30 45 44 16
30 19 1363 3 1403 -11 29 -64 66 -95 66 -11 0 -34 -9 -51 -19z"/>
<path d="M1624 2051 c-17 -10 -36 -32 -43 -47 -8 -22 -11 -202 -9 -717 l3
-689 28 -24 c39 -33 73 -40 113 -21 64 31 61 4 61 752 1 562 -2 685 -13 707
-26 51 -91 69 -140 39z"/>
<path d="M501 1769 c-16 -10 -35 -27 -40 -38 -7 -13 -11 -159 -11 -431 l0
-412 29 -29 c54 -54 150 -35 169 34 4 15 7 207 7 425 0 380 -1 398 -20 424
-32 43 -89 55 -134 27z"/>
<path d="M2003 1774 c-57 -28 -59 -46 -57 -469 1 -209 2 -390 3 -401 1 -26 44
-70 74 -76 36 -7 84 10 106 38 20 26 21 38 21 441 l0 415 -29 29 c-16 16 -36
29 -44 29 -9 0 -21 2 -29 5 -7 2 -27 -2 -45 -11z"/>
<path d="M123 1581 c-17 -11 -35 -30 -39 -43 -12 -38 -8 -452 5 -476 33 -61
132 -61 175 0 23 33 24 453 0 486 -33 47 -94 61 -141 33z"/>
<path d="M2384 1590 c-10 -4 -28 -18 -39 -30 -19 -20 -20 -38 -23 -244 -3
-243 0 -256 55 -289 27 -15 38 -16 72 -7 71 19 74 30 74 284 0 194 -2 225 -17
249 -24 36 -78 53 -122 37z"/>
</g>
</svg>
